<?xml version="1.0" encoding="UTF-8" standalone="no"?>
<svg
   xmlns:dc="http://purl.org/dc/elements/1.1/"
   xmlns:cc="http://creativecommons.org/ns#"
   xmlns:rdf="http://www.w3.org/1999/02/22-rdf-syntax-ns#"
   xmlns:svg="http://www.w3.org/2000/svg"
   xmlns="http://www.w3.org/2000/svg"
   xmlns:sodipodi="http://sodipodi.sourceforge.net/DTD/sodipodi-0.dtd"
   xmlns:inkscape="http://www.inkscape.org/namespaces/inkscape"
   width="84.229568mm"
   height="47.052059mm"
   viewBox="0 0 84.229568 47.052059"
   version="1.1"
   id="svg872"
   inkscape:version="1.0.2 (1.0.2+r75+1)"
   sodipodi:docname="logo-rme.svg">
  <defs
     id="defs866" />
  <sodipodi:namedview
     id="base"
     pagecolor="#ffffff"
     bordercolor="#666666"
     borderopacity="1.0"
     inkscape:pageopacity="0.0"
     inkscape:pageshadow="2"
     inkscape:zoom="1.4"
     inkscape:cx="148.22629"
     inkscape:cy="251.5418"
     inkscape:document-units="mm"
     inkscape:current-layer="layer1"
     inkscape:document-rotation="0"
     showgrid="false"
     fit-margin-top="0"
     fit-margin-left="0"
     fit-margin-right="0"
     fit-margin-bottom="0"
     inkscape:window-width="1920"
     inkscape:window-height="1025"
     inkscape:window-x="0"
     inkscape:window-y="0"
     inkscape:window-maximized="1" />
  <metadata
     id="metadata869">
    <rdf:RDF>
      <cc:Work
         rdf:about="">
        <dc:format>image/svg+xml</dc:format>
        <dc:type
           rdf:resource="http://purl.org/dc/dcmitype/StillImage" />
        <dc:title></dc:title>
      </cc:Work>
    </rdf:RDF>
  </metadata>
  <g
     inkscape:label="Calque 1"
     inkscape:groupmode="layer"
     id="layer1">
    <path
       fill="#003057"
       d="M 28.88774,38.060508 C 34.33762,35.557558 39.60071,30.037553 39.60071,19.979682 39.60071,-0.11277599 19.90566,-0.34693299 17.4027,0.09756701 23.25052,2.343086 27.57778,9.1965882 27.57778,19.979682 c 0,10.783093 -4.60798,18.384836 -10.03458,20.092456 0.39767,0.28046 7.34483,10.61932 20.42001,5.61367 -5.73088,-2.36247 -7.92956,-5.28638 -9.07547,-7.6253 z"
       id="path8"
       style="stroke-width:0.264583" />
    <path
       fill="#61a60e"
       d="m 14.82989,7.0444673 c -2.38574,2.0351749 -4.56141,7.0405627 -4.56141,13.0757087 0,6.034616 2.17567,11.040004 4.56141,13.075182 C 10.40897,38.154178 0,32.750858 0,20.026248 0,6.5534013 10.36214,2.085647 14.82989,7.0444673"
       id="path10"
       style="stroke-width:0.264583" />
    <path
       fill="#003057"
       d="m 49.44798,8.4949132 c 0,-0.655108 0.39767,-1.0760599 1.00568,-1.0760599 h 6.8535 c 0.58473,0 0.889,0.304271 0.889,0.7953369 v 0.116946 c 0,0.514615 -0.30427,0.77179 -0.889,0.77179 h -5.98805 v 3.3215788 h 4.63153 c 0.60801,0 0.88874,0.257175 0.88874,0.748506 v 0.04657 c 0,0.514614 -0.30427,0.795337 -0.889,0.795337 h -4.63127 v 3.578754 h 6.105 c 0.58473,0 0.84217,0.25744 0.84217,0.748771 v 0.0934 c 0,0.537898 -0.25744,0.818621 -0.84217,0.818621 H 50.45392 A 0.95911457,0.95911457 0 0 1 49.44824,18.225235 V 8.4949182 Z m 11.46148,-0.09366 a 0.9823979,0.9823979 0 0 1 1.0758,-1.0525129 h 0.49133 c 0.74851,0 0.93557,0.280459 1.23957,0.9588499 l 2.80697,6.3156038 2.80696,-6.3156038 C 69.6341,7.6059153 69.84444,7.3487403 70.54638,7.3487403 h 0.4445 c 0.67813,0 1.12263,0.3976689 1.12263,1.0525129 V 18.482671 c 0,0.561182 -0.23389,0.865188 -0.79534,0.865188 H 71.061 c -0.51462,0 -0.74878,-0.304006 -0.74878,-0.865188 V 9.7813192 l -2.61937,5.8943878 c -0.18733,0.467783 -0.39793,0.818621 -1.19327,0.818621 -0.79507,0 -1.00568,-0.350838 -1.21629,-0.818621 L 62.71048,9.8514342 v 8.6312368 c 0,0.561182 -0.23389,0.865188 -0.77205,0.865188 h -0.30401 c -0.49107,0 -0.72496,-0.304006 -0.72496,-0.865188 z"
       id="path12"
       style="stroke-width:0.264583" />
    <path
       fill="#003057"
       fill-rule="nonzero"
       d="m 75.34142,8.4949132 c 0,-0.655108 0.42096,-1.0760599 1.00569,-1.0760599 h 3.36814 c 2.90063,0 4.44447,1.2162889 4.44447,3.5554707 0,2.338916 -1.23983,3.298031 -3.53218,3.485091 l 3.4618,4.116917 c 0.0704,0.0934 -0.32729,0.771789 -1.09934,0.771789 -0.77179,0 -0.8419,-0.210608 -1.23957,-0.74877 l -3.22792,-3.952875 h -1.30969 v 3.836193 c 0,0.514615 -0.28098,0.865188 -0.81888,0.865188 H 76.1365 c -0.51435,0 -0.79508,-0.350573 -0.79508,-0.982134 z m 4.35055,4.6545498 c 1.7309,0 2.54952,-0.795337 2.54952,-2.081742 0,-1.2864038 -0.86518,-2.0817408 -2.61964,-2.0817408 h -2.43258 v 4.1634828 h 2.50296 z M 49.44798,24.049767 a 0.95911457,0.95911457 0 0 1 1.00568,-1.052512 h 3.36814 c 2.87735,0 4.42119,1.216289 4.42119,3.55547 0,2.338917 -1.23984,3.274484 -3.53219,3.461809 l 3.46181,4.116654 c 0.0937,0.11694 -0.32755,0.77179 -1.09934,0.77179 -0.77179,0 -0.81862,-0.18706 -1.23957,-0.72496 L 52.60578,30.20133 h -1.30995 v 3.836458 c 0,0.51435 -0.25744,0.86519 -0.81862,0.86519 h -0.25744 c -0.51462,0 -0.77179,-0.35084 -0.77179,-0.95885 z m 4.32726,4.678098 c 1.7309,0 2.57281,-0.818621 2.57281,-2.081742 0,-1.26312 -0.88874,-2.105025 -2.61938,-2.105025 h -2.43284 v 4.186767 h 2.47914 z"
       id="path14"
       style="stroke-width:0.264583" />
    <path
       fill="#003057"
       d="m 60.95603,23.956105 c 0,-0.631561 0.42122,-1.029229 1.07606,-1.029229 h 0.49133 c 0.72496,0 0.93557,0.257175 1.21629,0.935566 l 2.8067,6.315604 2.83025,-6.315604 c 0.28072,-0.678391 0.49133,-0.935566 1.193,-0.935566 h 0.46779 c 0.67839,0 1.09934,0.397668 1.09934,1.029229 v 10.081153 c 0,0.58473 -0.23389,0.86545 -0.77179,0.86545 h -0.25744 c -0.5379,0 -0.7485,-0.28046 -0.7485,-0.86518 V 25.35919 l -2.61964,5.894652 c -0.21061,0.467786 -0.39767,0.795336 -1.21629,0.795336 -0.81862,0 -0.9824,-0.32755 -1.19301,-0.795336 l -2.59636,-5.847556 v 8.630972 c 0,0.58473 -0.21034,0.86545 -0.7485,0.86545 h -0.30427 c -0.51435,0 -0.72496,-0.28046 -0.72496,-0.86518 z m 14.43223,0.0934 a 0.95911457,0.95911457 0 0 1 1.00541,-1.052513 h 6.85377 c 0.58473,0 0.889,0.280458 0.889,0.795338 v 0.0934 c 0,0.514615 -0.30427,0.795338 -0.889,0.795338 h -5.96477 v 3.298031 h 4.60799 c 0.60827,0 0.889,0.25744 0.889,0.772054 v 0.04657 c 0,0.514615 -0.28073,0.795338 -0.889,0.795338 h -4.60799 v 3.578757 h 6.08172 c 0.58472,0 0.86518,0.25744 0.86518,0.74877 v 0.0934 c 0,0.5379 -0.28046,0.81862 -0.86518,0.81862 h -6.97072 c -0.60827,0 -1.00568,-0.39767 -1.00568,-1.05251 v -9.730587 z"
       id="path16"
       style="stroke-width:0.264583" />
  </g>
</svg>
