<svg xmlns="http://www.w3.org/2000/svg" width="128" height="128" xmlns:v="https://vecta.io/nano"><path d="M110.334 33.432c-31.045 2.842-61.672 2.813-92.157.014l-3.02 2.996c29.995 2.739 60.418 2.888 92.177.034v1.986 2.746h-2.369v5.109l3-3.008v-2.473l2.369-2.375zM17.47 54.785h17.5v-3h-14.5zm22-8.703v8.703h19.5v-3h-16.5v-5.703zm24.196 0v8.703h19.5v-3h-16.5v-5.703zm24.189 0v8.703h17.109v1.902 3.008l3-3.008v-4.902H90.855v-5.703zM39.557 59.449h2.848v43.888l-2.848 2.808zm48.368 0h2.848v43.888l-2.848 2.808z"/><path d="M65.376 0C31.256 0 0 29.173 0 64.907 0 100.246 28.169 128 62.75 128c17.817 0 34.13-7.737 45.988-19.83S128 79.626 128 62.2c0-15.765-6.682-32.5-17.921-43.632S83.045 0 65.376 0zm-2.507 3.442c34.177 0 61.731 27.552 61.731 61.597C124.6 99.838 96.561 127 62.885 127 28.703 127 1 99.741 1 64.942c0-33.067 27.07-61.5 61.869-61.5z" fill-rule="evenodd"/></svg>