<svg xmlns="http://www.w3.org/2000/svg" width="20" height="32" fill="#810e11" xmlns:v="https://vecta.io/nano"><path d="M3.747 5.224h12.752v10.68H3.747z" fill-rule="evenodd" fill-opacity=".006"/><path d="M10.023 0h-.045C4.476 0 0 4.494 0 10.019c0 3.621 1.642 8.4 4.88 14.204 2.4 4.303 4.835 7.599 4.859 7.632a.359.361 0 0 0 .288.145.36.36 0 0 0 .299-.161c.024-.037 2.441-3.703 4.825-8.187C18.368 17.6 20 13.013 20 10.019 20 4.494 15.524 0 10.023 0zm4.605 10.263c0 2.564-2.076 4.649-4.628 4.649s-4.628-2.086-4.628-4.649S7.448 5.614 10 5.614s4.628 2.086 4.628 4.649z"/></svg>