<?xml version="1.0" standalone="no"?>
<!DOCTYPE svg PUBLIC "-//W3C//DTD SVG 20010904//EN"
 "http://www.w3.org/TR/2001/REC-SVG-20010904/DTD/svg10.dtd">
<svg version="1.0" xmlns="http://www.w3.org/2000/svg"
 width="700.000000pt" height="700.000000pt" viewBox="0 0 700.000000 700.000000"
 preserveAspectRatio="xMidYMid meet">
<metadata>
Created by potrace 1.14, written by Peter Selinger 2001-2017
</metadata>
<g transform="translate(0.000000,700.000000) scale(0.100000,-0.100000)"
fill="#000000" stroke="none">
<path d="M3206 6770 c-1073 -103 -2002 -698 -2551 -1634 -203 -346 -341 -748
-407 -1189 -18 -120 -22 -188 -22 -442 0 -306 7 -399 50 -620 302 -1552 1648
-2665 3224 -2665 1813 0 3280 1467 3280 3280 0 1255 -707 2389 -1835 2945
-324 159 -623 251 -995 306 -153 23 -589 34 -744 19z m2844 -1688 l0 -137 -80
-80 -80 -80 0 -110 0 -110 -132 -132 c-73 -73 -136 -133 -140 -133 -5 0 -8 92
-8 205 l0 205 85 0 85 0 0 111 0 111 -62 -6 c-99 -10 -514 -34 -858 -51 -1094
-53 -2038 -46 -3065 20 -391 26 -814 60 -821 67 -2 2 52 59 119 126 l123 123
260 -20 c1131 -88 2195 -103 3364 -46 310 15 869 49 1047 64 54 5 113 9 131
10 l32 1 0 -138z m-3510 -947 l0 -155 360 0 360 0 0 -135 0 -135 -502 0 -501
0 6 197 c4 108 7 238 7 290 l0 93 135 0 135 0 0 -155z m1287 0 l-6 -155 364 0
365 0 0 -135 0 -135 -500 0 -500 0 0 274 c0 151 3 281 6 290 5 14 27 16 142
16 l135 0 -6 -155z m1284 -2 l-3 -153 391 0 391 0 0 -187 0 -188 -132 -132
c-73 -73 -136 -133 -140 -133 -5 0 -8 83 -8 185 l0 185 -385 0 -385 0 0 290 0
291 138 -3 137 -3 -4 -152z m-3141 -288 l0 -135 -452 0 -453 0 135 135 135
135 317 0 318 0 0 -135z m570 -1668 l0 -1152 -140 -140 -140 -140 0 1293 0
1292 140 0 140 0 0 -1153z m2570 -5 l0 -1157 -135 -135 -135 -135 0 1293 0
1292 135 0 135 0 0 -1158z"/>
</g>
</svg>
